<svg width="1081" height="2222" viewBox="0 0 1081 2222" fill="none" xmlns="http://www.w3.org/2000/svg">
<g clip-path="url(#clip0_11_29)">
<rect width="1081" height="2222" fill="#CADAF9"/>
<path d="M205.621 1525.94L-21 2222L1081 2196.56L596.653 1227.62L338.927 1905.19L205.621 1525.94Z" fill="#463F7D" stroke="#463F7D"/>
<path d="M203.826 1634.62L193.145 1705.54L187.804 1636.17L147.855 1694.75L170.073 1630L205.621 1523.62L258.944 1673.94L265.609 1693.59L272.274 1713.25L229.462 1637.71L227.839 1705.54L203.826 1634.62Z" fill="#D8E1FC" stroke="#D8E1FC"/>
<path d="M596.653 1382.56L574.435 1488.94L563.327 1384.88L501.117 1479.69L536.665 1382.56L596.653 1223L714.407 1456.56L734.403 1500.5L649.976 1387.19L645.532 1488.94L596.653 1382.56Z" fill="#D8E1FC" stroke="#D8E1FC"/>
<path d="M611.06 1817.26L184.214 2100.38L-21 2222H1081V1578L641.842 2040.56L611.06 1817.26Z" fill="#685CD6" stroke="#685CD6"/>
<path d="M782.481 1373.82L792.811 1329.58H825.652L831.848 1373.82H782.481ZM835.276 1373.82L838.606 1373.17L831.382 1321.61H787.665L775.72 1372.77L778.982 1373.82H755.253L766.92 1458.03L770.095 1483H845.24L848.415 1458.03L860.478 1373.82H835.276Z" fill="#CD8695"/>
<path d="M822.059 1324.99H818.678L819.634 1267.93H823.014L822.059 1324.99Z" fill="#CD8695"/>
<path d="M790.013 1326.84L786.841 1328.22L770.991 1274.31L774.163 1272.93L790.013 1326.84Z" fill="#CD8695"/>
<path d="M828.32 1332.05L825.131 1330.73L847.444 1272.23L850.633 1273.55L828.32 1332.05Z" fill="#CD8695"/>
<path d="M800.108 1324.99H796.728L796.349 1267.93H799.729L800.108 1324.99Z" fill="#CD8695"/>
<path opacity="0.5" d="M859.678 1377.78H757.394V1379.28H859.678V1377.78Z" stroke="black"/>
<path d="M861.116 1372.79H755.277V1377.78H861.116V1372.79Z" stroke="#CD8695"/>
<path d="M854.766 1277.92C854.766 1279.99 835.922 1280.41 811.372 1280.41C786.822 1280.41 766.92 1279.99 766.92 1277.92C766.92 1275.85 767.771 1269.18 792.321 1269.18C800.788 1267.93 829.053 1271.12 841.007 1272.92C854.172 1274.91 854.766 1276.83 854.766 1277.92Z" fill="#A06879"/>
<path d="M1030.59 1004.87C1023.43 1084.15 920.904 1206.46 868.403 1262.16C849.937 1283.6 854.04 1279.31 854.04 1279.31C851.886 1277.9 847.148 1274.22 839.948 1272.93C821.706 1269.64 791.733 1269.15 776.445 1272.93C771.086 1274.25 770.011 1277.17 767.959 1279.31C753.597 1270.73 638.885 1136.67 603.723 1073.48C568.561 1010.28 562.232 893.334 611.93 820.475C621.532 806.399 640.655 788.314 640.655 788.314C679.639 758.297 694.113 751.344 798.736 739C879.505 739 961.792 776.276 1003.82 844.06C1032.54 886.942 1038.99 952.526 1030.59 1004.87Z" fill="#9470EE"/>
<path d="M1005.97 971.893C1005.97 1105.25 824.179 1270.73 802.745 1270.73C780.565 1270.73 599.713 1105.25 599.713 971.893C599.713 838.527 687.213 745.432 799.397 745.432C911.576 745.432 1005.97 838.527 1005.97 971.893Z" fill="#81A6EF"/>
<path d="M918.269 967.01C918.269 1100.02 815.295 1262.94 802.905 1262.94C790.078 1262.94 683.307 1100.02 683.307 967.01C683.307 833.996 731.671 741.144 796.554 741.144C861.438 741.144 918.269 833.996 918.269 967.01Z" fill="#9470EE"/>
<path d="M848.415 967.01C848.415 1100.02 806.87 1269.18 801.846 1269.18C796.64 1269.18 753.161 1100.02 753.161 967.01C753.161 834.001 771.306 742.393 797.613 742.393C823.911 742.393 848.415 834.001 848.415 967.01Z" fill="#81A6EF"/>
<path d="M855.921 1405.25H759.511L758.453 1397.76H856.98L855.921 1405.25Z" fill="#DCF2F6"/>
<path opacity="0.5" d="M808.196 1419.73C812.542 1419.73 816.163 1415.75 816.163 1410.72V1394.77C816.163 1389.75 812.542 1385.77 808.196 1385.77C803.851 1385.77 800.229 1389.75 800.229 1394.77V1410.72C800.229 1415.75 803.851 1419.73 808.196 1419.73Z" stroke="black"/>
<path opacity="0.5" d="M839.948 1419.73C844.293 1419.73 847.915 1415.75 847.915 1410.72V1394.77C847.915 1389.75 844.293 1385.77 839.948 1385.77C835.602 1385.77 831.981 1389.75 831.981 1394.77V1410.72C831.981 1415.75 835.602 1419.73 839.948 1419.73Z" stroke="black"/>
<path d="M814.899 1410.34C814.899 1415.22 811.542 1419.18 807.406 1419.18C803.269 1419.18 799.912 1415.22 799.912 1410.34V1395.51C799.912 1390.63 803.269 1386.68 807.406 1386.68C811.542 1386.68 814.899 1390.63 814.899 1395.51V1410.34Z" fill="#7C6EF8"/>
<path d="M846.98 1410.34C846.98 1415.22 843.623 1419.18 839.493 1419.18C835.35 1419.18 832 1415.22 832 1410.34V1395.51C832 1390.63 835.35 1386.68 839.493 1386.68C843.623 1386.68 846.98 1390.63 846.98 1395.51V1410.34Z" fill="#7C6EF8"/>
<path opacity="0.5" d="M776.445 1419.73C780.79 1419.73 784.412 1415.75 784.412 1410.72V1394.77C784.412 1389.75 780.79 1385.77 776.445 1385.77C772.099 1385.77 768.478 1389.75 768.478 1394.77V1410.72C768.478 1415.75 772.099 1419.73 776.445 1419.73Z" stroke="black"/>
<path d="M784.507 1410.34C784.507 1415.22 781.15 1419.18 777.013 1419.18C772.877 1419.18 769.52 1415.22 769.52 1410.34V1395.51C769.52 1390.63 772.877 1386.68 777.013 1386.68C781.15 1386.68 784.507 1390.63 784.507 1395.51V1410.34Z" fill="#7C6EF8"/>
</g>
<defs>
<clipPath id="clip0_11_29">
<rect width="1081" height="2222" fill="white"/>
</clipPath>
</defs>
</svg>
